<?xml version="1.0" encoding="UTF-8"?><svg id="Layer_1" xmlns="http://www.w3.org/2000/svg" xmlns:xlink="http://www.w3.org/1999/xlink" viewBox="0 0 772.32 772.08"><defs><style>.cls-1{fill:#fff;}.cls-2{filter:url(#drop-shadow-1);stroke:url(#White_Black);stroke-miterlimit:10;stroke-width:5px;}.cls-2,.cls-3{fill:#212222;}.cls-4{fill:#33b45a;}</style><linearGradient id="White_Black" x1="17.73" y1="381.06" x2="764.73" y2="381.06" gradientUnits="userSpaceOnUse"><stop offset="0" stop-color="#fff"/><stop offset="1" stop-color="#000"/></linearGradient><filter id="drop-shadow-1" filterUnits="userSpaceOnUse"><feOffset dx="-5" dy="5"/><feGaussianBlur result="blur" stdDeviation="5"/><feFlood flood-color="#000" flood-opacity=".5"/><feComposite in2="blur" operator="in"/><feComposite in="SourceGraphic"/></filter></defs><rect class="cls-2" x="20.23" y="10.06" width="742" height="742" rx="175.55" ry="175.55"/><circle class="cls-1" cx="391.23" cy="380.66" r="299.47"/><circle class="cls-3" cx="391.23" cy="380.66" r="187.37"/><rect class="cls-3" x="378.69" y="80.78" width="24.28" height="113.31"/><rect class="cls-3" x="378.69" y="568.03" width="24.28" height="113.31"/><rect class="cls-3" x="549.47" y="313.07" width="138.4" height="24.28"/><rect class="cls-1" x="402.97" y="337.36" width="274.38" height="111.69" rx="55.85" ry="55.85"/><path class="cls-3" d="M592.15,411.19c1.01-1.86.89-2.48,2.03-5.31,1.04-2.58,1.56-3.87,2.55-5.02,1.67-1.92,3.67-2.71,5.31-3.35,2.46-.96,4.79-1.24,6.69-1.24,6.07.09,13.16.18,21.07.25,3.38.03,11.91.09,22.8.11,10.99.01,25.38-.02,42.6-.21.02-2.15.04-4.3.06-6.44-7.82.06-14.88.09-21.05.11-12.38.04-21.77,0-24.87,0-3.93-.01-11.3-.04-20.62-.12-7.28-.06-13.93-.13-19.85-.21-1.46-.02-4.35.02-7.85,1.09-2.09.64-5.45,1.67-8.18,4.57-2.18,2.32-3.22,5.05-4.03,7.18-1.44,3.8-1.43,6.22-3.42,7.13-.08.04-1.48.65-2.84.07-1.1-.47-1.63-1.49-2.11-2.55-1.28-2.84-1.65-4.75-2.18-6.47-.68-2.2-1.44-4.64-3.44-6.66-2.28-2.31-5.09-2.98-6.87-3.41-1.05-.25-2.84-.29-6.44-.38-.27,0-.75-.01-1.31.18-1.14.39-2.55,1.56-2.62,3.28,0,.13-.05,1.83,1.31,2.84.69.52,1.42.61,1.76.63,1.38,0,2.75.01,4.13.02,1.58.06,3.83.42,5.54,2,1.97,1.81,2.05,3.63,3.09,7.51.87,3.24,2.8,7.12,6.45,8.83,2.95,1.39,6.99,1.25,9.53-.74,1.28-1.01,2.01-2.35,2.75-3.69Z"/><path class="cls-3" d="M560.32,393.53c-.08,13.53-5.52,26.47-15.13,35.99-9.61,9.52-22.61,14.83-36.14,14.77l-50.36-.21c-6.69-.03-13.32-1.38-19.49-3.96-6.17-2.59-11.78-6.37-16.49-11.12-4.71-4.75-8.44-10.39-10.98-16.59-2.54-6.2-3.83-12.83-3.8-19.52s1.38-13.32,3.96-19.49c2.59-6.17,6.37-11.78,11.12-16.49,4.75-4.71,10.39-8.44,16.59-10.98,6.2-2.54,12.83-3.83,19.52-3.8l50.36.21c13.53.06,26.48,5.48,36.01,15.08,9.53,9.6,14.86,22.59,14.83,36.12ZM419.55,392.93c-.02,10.43,4.09,20.45,11.43,27.86,7.35,7.41,17.33,11.6,27.76,11.67l50.36.21c5.17.02,10.29-.97,15.07-2.93,4.78-1.96,9.13-4.84,12.8-8.48,3.67-3.64,6.59-7.97,8.59-12.73,2-4.77,3.04-9.88,3.06-15.05s-.97-10.29-2.93-15.07c-1.96-4.78-4.84-9.13-8.48-12.8-3.64-3.67-7.97-6.59-12.73-8.59-4.77-2-9.88-3.04-15.05-3.06l-50.36-.21c-10.43-.02-20.45,4.09-27.86,11.43-7.41,7.34-11.6,17.33-11.67,27.76Z"/><path class="cls-4" d="M480.67,393.19c0,1.54-.62,3.02-1.72,4.1-1.09,1.09-2.57,1.69-4.12,1.68l-21.31-.09c-.76,0-1.52-.16-2.22-.45-.7-.3-1.34-.73-1.88-1.27-.54-.54-.96-1.18-1.25-1.89-.29-.71-.44-1.46-.43-2.23s.16-1.52.45-2.22c.29-.7.73-1.34,1.27-1.88.54-.54,1.18-.96,1.89-1.25.71-.29,1.46-.44,2.23-.43l21.54.09c1.5.07,2.92.71,3.95,1.8,1.04,1.09,1.61,2.53,1.6,4.04Z"/></svg>